# xmcd CD database file
#
# Track frame offsets:
#	150
#	20785
#	33377
#	46836
#	60596
#	71001
#	83552
#	96546
#	109158
#	122473
#	136026
#	149052
#	162578
#
# Disc length: 2346 seconds
#
# Revision: 0
# Processed by: cddbd v1.5.2PL0 Copyright (c) Steve Scherf et al.
# Submitted via: CDex 1.70beta2
#
DISCID=b709280d
DTITLE=B.B. King - The original Sweet Sixteen
DYEAR=1966
DGENRE=Blues
TTITLE0=Sweet Sixteen
TTITLE1=Please Love me
TTITLE2=3 O'Clock Blues
TTITLE3=You Know I Love You
TTITLE4=Bad case of Love
TTITLE5=Ten Young Years
TTITLE6=Rock Me Baby
TTITLE7=Everyday I Have The Blues
TTITLE8=Woke Up This Morning
TTITLE9=You Upset Me Baby
TTITLE10=When My Heart Beats Like a Hammer
TTITLE11=Sneakin' Around
TTITLE12=Sweet Little Angel
EXTD=YEAR: 1966
EXTT0=
EXTT1=
EXTT2=
EXTT3=
EXTT4=
EXTT5=
EXTT6=
EXTT7=
EXTT8=
EXTT9=
EXTT10=
EXTT11=
EXTT12=
PLAYORDER=
